<?xml version="1.0" standalone="no"?>
<!DOCTYPE svg PUBLIC "-//W3C//DTD SVG 20010904//EN"
 "http://www.w3.org/TR/2001/REC-SVG-20010904/DTD/svg10.dtd">
<svg version="1.0" xmlns="http://www.w3.org/2000/svg"
 width="360.000000pt" height="360.000000pt" viewBox="0 0 360.000000 360.000000"
 preserveAspectRatio="xMidYMid meet">
<metadata>
Created by potrace 1.14, written by Peter Selinger 2001-2017
</metadata>
<g transform="translate(0.000000,360.000000) scale(0.100000,-0.100000)"
fill="#000000" stroke="none">
<path d="M1555 3589 c-162 -25 -281 -57 -439 -122 -535 -216 -933 -681 -1072
-1251 -59 -242 -59 -590 0 -832 110 -450 379 -833 766 -1091 209 -139 472
-240 727 -278 133 -20 393 -20 526 0 507 76 959 364 1244 795 140 211 240 473
278 727 20 133 20 393 0 526 -100 670 -570 1231 -1210 1445 -143 48 -180 57
-313 77 -112 17 -406 19 -507 4z m420 -164 c385 -45 712 -202 980 -470 272
-272 426 -596 471 -995 15 -124 15 -164 5 -276 -38 -416 -195 -758 -475 -1038
-273 -273 -597 -427 -996 -472 -124 -15 -164 -15 -276 -5 -72 7 -172 21 -222
31 -603 126 -1094 598 -1246 1195 -14 55 -33 165 -42 245 -15 124 -15 164 -5
276 38 417 195 758 476 1039 264 265 595 424 973 470 146 18 206 18 357 0z"/>
<path d="M1303 3050 c-115 -17 -239 -114 -296 -230 -29 -60 -31 -73 -31 -165
0 -91 3 -106 31 -167 40 -86 109 -155 199 -199 65 -32 75 -34 169 -33 87 0
108 3 158 26 167 77 266 258 237 433 -36 223 -240 369 -467 335z"/>
<path d="M2164 3050 c-167 -25 -310 -170 -334 -338 -18 -133 26 -258 126 -351
86 -81 149 -105 274 -105 87 0 101 3 164 33 89 43 154 108 197 197 30 63 33
77 33 164 0 124 -24 187 -102 271 -95 104 -223 149 -358 129z"/>
<path d="M1220 2173 c-77 -32 -172 -121 -209 -196 -96 -198 -10 -444 187 -539
170 -81 381 -31 495 118 57 75 80 144 80 244 0 140 -61 256 -172 331 -112 75
-259 91 -381 42z"/>
<path d="M2085 2176 c-168 -71 -257 -201 -257 -376 0 -179 97 -315 270 -380
47 -18 72 -21 147 -18 117 6 184 35 263 115 69 70 101 132 115 224 20 131 -17
243 -115 342 -81 81 -146 109 -268 114 -84 3 -102 1 -155 -21z"/>
<path d="M1283 1341 c-117 -30 -225 -120 -276 -229 -28 -61 -31 -76 -31 -167
0 -92 2 -105 31 -165 59 -121 180 -213 306 -230 269 -38 495 188 457 457 -17
126 -109 247 -229 305 -51 24 -80 31 -145 34 -45 2 -95 -1 -113 -5z"/>
<path d="M2122 1335 c-76 -21 -109 -41 -173 -102 -238 -227 -110 -630 215
-683 131 -21 264 26 358 128 78 85 102 148 102 272 0 87 -3 101 -33 164 -67
138 -190 222 -338 231 -52 3 -96 0 -131 -10z"/>
</g>
</svg>
